<?xml version="1.0" encoding="UTF-8" standalone="no"?>
<!-- Created with Inkscape (http://www.inkscape.org/) -->

<svg
   width="27.458334mm"
   height="27.458334mm"
   viewBox="0 0 27.458334 27.458334"
   version="1.1"
   id="svg1"
   inkscape:version="1.3.2 (091e20ef0f, 2023-11-25)"
   sodipodi:docname="favicon.svg"
   xmlns:inkscape="http://www.inkscape.org/namespaces/inkscape"
   xmlns:sodipodi="http://sodipodi.sourceforge.net/DTD/sodipodi-0.dtd"
   xmlns="http://www.w3.org/2000/svg"
   xmlns:svg="http://www.w3.org/2000/svg">
  <sodipodi:namedview
     id="namedview1"
     pagecolor="#ffffff"
     bordercolor="#000000"
     borderopacity="0.25"
     inkscape:showpageshadow="2"
     inkscape:pageopacity="0.0"
     inkscape:pagecheckerboard="0"
     inkscape:deskcolor="#d1d1d1"
     inkscape:document-units="mm"
     inkscape:zoom="5.6568542"
     inkscape:cx="54.00528"
     inkscape:cy="40.570252"
     inkscape:window-width="1920"
     inkscape:window-height="1011"
     inkscape:window-x="1920"
     inkscape:window-y="32"
     inkscape:window-maximized="1"
     inkscape:current-layer="layer1" />
  <defs
     id="defs1" />
  <g
     inkscape:label="Layer 1"
     inkscape:groupmode="layer"
     id="layer1"
     transform="translate(-65.551399,-87.9039)">
    <rect
       style="font-variation-settings:'wght' 100;opacity:1;fill:#e9f5ff;fill-opacity:1;stroke:none;stroke-width:1.002;stroke-linecap:square;stroke-linejoin:miter;stroke-miterlimit:0.3;stroke-dasharray:none;stroke-opacity:1;paint-order:stroke fill markers"
       id="rect11"
       width="23.86521"
       height="16.288002"
       x="67.347961"
       y="97.436958"
       ry="0" />
    <g
       id="g3"
       style="display:inline;fill:none;stroke:#68c0e4;stroke-width:1.15865;stroke-dasharray:none;stroke-opacity:1"
       transform="matrix(1,0,0,0.9013302,0,11.267909)"
       inkscape:label="gitter">
      <path
         style="fill:none;fill-opacity:1;stroke:#68c0e4;stroke-width:1.15865;stroke-linecap:square;stroke-linejoin:miter;stroke-miterlimit:0.3;stroke-dasharray:none;stroke-opacity:1;paint-order:stroke fill markers"
         d="M 79.280566,95.077098 V 114.19815"
         id="path3" />
      <path
         style="fill:none;fill-opacity:1;stroke:#68c0e4;stroke-width:1.15865;stroke-linecap:square;stroke-linejoin:miter;stroke-miterlimit:0.3;stroke-dasharray:none;stroke-opacity:1;paint-order:stroke fill markers"
         d="M 85.582746,95.076757 V 114.16837"
         id="path3-8-4" />
      <path
         style="fill:none;fill-opacity:1;stroke:#68c0e4;stroke-width:1.15865;stroke-linecap:square;stroke-linejoin:miter;stroke-miterlimit:0.3;stroke-dasharray:none;stroke-opacity:1;paint-order:stroke fill markers"
         d="M 72.978983,95.077098 V 114.19815"
         id="path3-8-9" />
      <path
         style="display:inline;fill:none;stroke:#68c0e4;stroke-width:1.15865;stroke-dasharray:none;stroke-opacity:1;fill-opacity:1;stroke-linecap:square;stroke-linejoin:miter;stroke-miterlimit:0.3;paint-order:stroke fill markers"
         d="M 91.883734,107.62889 H 66.716656"
         id="path3-8-4-3" />
      <path
         style="display:inline;fill:none;stroke:#68c0e4;stroke-width:1.15865;stroke-dasharray:none;stroke-opacity:1;fill-opacity:1;stroke-linecap:square;stroke-linejoin:miter;stroke-miterlimit:0.3;paint-order:stroke fill markers"
         d="M 91.883285,101.35299 H 66.6774"
         id="path3-0" />
      <path
         style="display:inline;fill:none;fill-opacity:1;stroke:#68c0e4;stroke-width:1.15865;stroke-linecap:square;stroke-linejoin:miter;stroke-miterlimit:0.3;stroke-dasharray:none;stroke-opacity:1;paint-order:stroke fill markers"
         d="M 91.883286,95.022766 H 66.6774"
         id="path3-0-6" />
    </g>
    <path
       id="rect1-6"
       style="color:#000000;display:inline;fill:#68c0e4;fill-opacity:1;stroke:#68c0e4;stroke-width:1;stroke-linecap:square;stroke-linejoin:bevel;stroke-miterlimit:0.3;stroke-opacity:1;-inkscape-stroke:none;paint-order:stroke fill markers"
       d="m 66.048316,94.825961 0.0025,17.044729 c 2.42e-4,1.64978 1.361007,2.99154 3.031999,2.99154 H 89.47773 c 1.670994,0 3.032,-1.34176 3.032,-2.99154 V 94.796794 h -0.963528 v 17.073896 c 0,1.13917 -0.914636,2.04024 -2.068472,2.04024 H 69.082819 c -1.153834,0 -2.068472,-0.90107 -2.068472,-2.04024 V 94.796794 Z"
       inkscape:label="unten"
       sodipodi:nodetypes="cssssccsssscc" />
    <path
       id="rect1"
       style="color:#000000;display:inline;fill:#f95f5f;fill-opacity:1;stroke:none;stroke-linecap:round;stroke-linejoin:bevel;stroke-miterlimit:0.3;-inkscape-stroke:none;paint-order:stroke fill markers"
       inkscape:label="oben"
       d="m 68.69746,87.904417 c -1.801143,-0.04619 -3.320971,1.647158 -3.146582,3.427691 v 5.081353 h 27.458789 c -0.01885,-1.413411 0.04022,-4.418114 -0.03442,-5.828838 -0.210229,-1.638725 -1.821422,-2.844681 -3.451966,-2.6802 l -20.825819,-6e-6 z"
       sodipodi:nodetypes="sccccccs" />
    <path
       d="m 71.63149,94.118752 h 1.109874 v -1.821991 c 0,-0.859672 -0.417005,-1.360078 -1.129121,-1.360078 -0.449082,0 -0.840425,0.19888 -1.097043,0.564561 l 0.121893,0.660792 c 0.160387,-0.173217 0.34002,-0.263034 0.558145,-0.263034 0.301527,0 0.436252,0.166802 0.436252,0.519653 z m -4.003247,0 h 1.109874 v -2.412213 l -0.307942,-0.731363 h -0.801932 z m 2.001623,0 h 1.109875 v -1.821991 c 0,-0.859672 -0.417005,-1.360078 -1.129121,-1.360078 -0.449082,0 -0.840426,0.19888 -1.097044,0.564561 l 0.121894,0.660792 c 0.160386,-0.173217 0.340019,-0.263034 0.558145,-0.263034 0.301526,0 0.436251,0.166802 0.436251,0.519653 z m 3.644864,1.392154 h 1.206106 l 0.487575,-1.392154 1.18686,-3.143576 h -1.103459 l -0.763439,2.579015 0.269449,0.0064 -0.69287,-2.58543 h -1.225353 l 1.206107,3.143576 z m 2.907088,-1.392154 h 3.194899 v -0.97515 h -2.085024 v -0.795517 h 1.905391 v -0.97515 h -1.905391 v -0.731363 h 2.085024 v -0.97515 h -3.194899 z m 4.292823,0 h 1.109874 l 1.218938,-3.143576 h -1.11629 l -0.712116,2.348058 h 0.147555 l -0.63513,-2.348058 h -1.218938 z m 3.946393,0.06415 c 0.384928,0 0.789102,-0.07057 1.18686,-0.205295 l -0.243787,-0.750608 c -0.263034,0.08982 -0.513237,0.134724 -0.769856,0.134724 -0.622299,0 -0.910995,-0.269449 -0.910995,-0.917411 0,-0.474744 0.166802,-0.718531 0.48116,-0.718531 0.288695,0 0.455497,0.186048 0.455497,0.519652 h -1.071382 v 0.609469 h 2.072194 c 0.02566,-0.160387 0.04491,-0.320773 0.04491,-0.487575 0,-0.917411 -0.526068,-1.45631 -1.424232,-1.45631 -0.994396,0 -1.655189,0.654377 -1.655189,1.642358 0,1.013643 0.69287,1.629527 1.834822,1.629527 z m 3.458813,-0.06415 h 1.109875 v -1.821991 c 0,-0.859672 -0.417005,-1.360078 -1.129121,-1.360078 -0.449083,0 -0.840426,0.19888 -1.097044,0.564561 l 0.121894,0.660792 c 0.160386,-0.173217 0.340019,-0.263034 0.558145,-0.263034 0.301526,0 0.436251,0.166802 0.436251,0.519653 z m -2.001624,0 h 1.109875 v -2.412213 l -0.307942,-0.731363 h -0.801933 z m 4.844554,0.05132 c 0.218125,0 0.461913,-0.03208 0.712116,-0.102647 l -0.21171,-0.782686 c -0.0834,0.03208 -0.173218,0.04491 -0.256619,0.04491 -0.269449,0 -0.429836,-0.14114 -0.429836,-0.372097 V 90.070596 H 89.4461 v 2.919035 c 0,0.744193 0.461913,1.180444 1.276677,1.180444 z m -1.725759,-2.328812 h 2.264657 v -0.866087 h -2.264657 z"
       id="text2"
       style="font-size:6.41546px;font-family:Cantarell;-inkscape-font-specification:'Cantarell, @wght=800';font-variation-settings:'wght' 800;letter-spacing:-0.396875px;fill:#ffffff;stroke-width:1.51546;stroke-linecap:round;stroke-linejoin:bevel;stroke-miterlimit:0.3;paint-order:stroke fill markers"
       aria-label="myEvent" />
    <path
       style="font-size:22.8566px;font-family:Cantarell;-inkscape-font-specification:'Cantarell, @wght=300';font-variation-settings:'wght' 300;letter-spacing:-1.41396px;fill:#ffd42a;stroke:#f95f5f;stroke-width:1.002;stroke-linecap:square;stroke-miterlimit:0.3;paint-order:stroke fill markers"
       d="m 71.982593,107.84149 q -0.222742,-0.20801 -0.34525,-0.35659 -0.111373,-0.14858 -0.111373,-0.28724 0,-0.1783 0.18933,-0.3566 0.20047,-0.17828 0.501173,-0.31696 0.31184,-0.13866 0.66823,-0.2179 0.367525,-0.0892 0.70164,-0.0892 0.356389,0 0.579132,0.0892 0.233879,0.0792 0.445485,0.27733 0.857559,0.8023 1.548064,1.64423 0.701641,0.83203 1.369868,1.72347 0.645956,-1.53526 1.336457,-2.96159 0.690503,-1.43623 1.458966,-2.80314 0.779601,-1.37679 1.659435,-2.70407 0.890973,-1.33716 1.926727,-2.684249 0.378661,-0.50516 1.113715,-0.742881 0.74619,-0.237722 1.904452,-0.237722 0.345248,0 0.556856,0.08915 0.211607,0.08915 0.211607,0.237719 0,0.128765 -0.06682,0.257532 -0.06683,0.128763 -0.200469,0.297149 -2.528134,3.139902 -4.599642,6.576962 -2.07151,3.43702 -3.597299,7.25046 -0.100234,0.27737 -0.490034,0.41603 -0.3898,0.13866 -1.147125,0.13866 -0.356388,0 -0.601407,-0.0197 -0.245018,-0.0197 -0.412073,-0.0792 -0.167057,-0.0494 -0.27843,-0.12878 -0.111371,-0.0792 -0.189331,-0.1981 -0.478897,-0.69334 -0.935521,-1.28764 -0.445486,-0.6042 -0.935519,-1.1688 -0.478897,-0.56458 -1.035755,-1.13908 -0.545721,-0.57448 -1.225085,-1.21831 z"
       id="text8"
       aria-label="✔" />
  </g>
</svg>
