<?xml version="1.0" encoding="UTF-8" standalone="no"?>
<!-- Created with Inkscape (http://www.inkscape.org/) -->

<svg
   width="37.6157"
   height="34.828419"
   viewBox="0 0 37.6157 34.828419"
   version="1.1"
   id="svg1"
   inkscape:version="1.3.2 (091e20ef0f, 2023-11-25)"
   sodipodi:docname="plus.svg"
   xmlns:inkscape="http://www.inkscape.org/namespaces/inkscape"
   xmlns:sodipodi="http://sodipodi.sourceforge.net/DTD/sodipodi-0.dtd"
   xmlns="http://www.w3.org/2000/svg"
   xmlns:svg="http://www.w3.org/2000/svg"><defs
   id="defs1" />
<sodipodi:namedview
   id="namedview1"
   pagecolor="#ffffff"
   bordercolor="#000000"
   borderopacity="0.25"
   inkscape:showpageshadow="2"
   inkscape:pageopacity="0.0"
   inkscape:pagecheckerboard="0"
   inkscape:deskcolor="#d1d1d1"
   inkscape:zoom="14.481547"
   inkscape:cx="19.990958"
   inkscape:cy="19.714745"
   inkscape:window-width="1920"
   inkscape:window-height="1011"
   inkscape:window-x="1920"
   inkscape:window-y="32"
   inkscape:window-maximized="1"
   inkscape:current-layer="svg1" />

// d=&quot;M 10 35 l 15 -30&quot;
    d=&quot;M 40 40 h 0 -30 q -10 10 0 20 h 30 0 v 0 30 q 10 10 20 0 v -30 0 h 30 0 q 10 -10 0 -20 h -30 0 v 0 -30 q -10 -10 -20 0 v 0 30&quot;
    stroke=&quot;#aaa&quot;
    fill=&quot;#dcdcdc&quot;
    strokeWidth=&quot;1&quot;
  /&gt;
<path
   id="rect2-4"
   style="font-variation-settings:'wght' 100;fill:#e6e6e6;stroke:#999999;stroke-width:0.686997;stroke-linecap:round;stroke-linejoin:round;stroke-miterlimit:0.3;stroke-dasharray:none;paint-order:stroke fill markers"
   d="m 18.80785,10.095628 c -0.9489,0 -1.71267,0.51022 -1.71267,1.144123 v 4.629867 h -4.949949 c -0.702883,0 -1.26915,0.688815 -1.26915,1.544591 0,0.855775 0.566267,1.54459 1.26915,1.54459 h 4.949949 v 4.629867 c 0,0.633903 0.76377,1.144123 1.71267,1.144123 0.9489,0 1.713195,-0.51022 1.713195,-1.144123 v -4.629867 h 4.949949 c 0.702882,0 1.268625,-0.688815 1.268625,-1.54459 0,-0.855776 -0.565743,-1.544591 -1.268625,-1.544591 h -4.949949 v -4.629867 c 0,-0.633903 -0.764295,-1.144123 -1.713195,-1.144123 z"
   sodipodi:nodetypes="sscssscssscssscss" />
</svg>
